<svg aria-hidden="true" style="position:absolute;width:0;height:0" xmlns="http://www.w3.org/2000/svg" overflow="hidden"><defs><symbol id="icon-facebook" viewBox="0 0 32 32"><path d="M21.33 5.31h2.92V.22a36.48 36.48 0 00-4.1-.22h-.16c-4.2 0-7.1 2.65-7.1 7.52V12H8.26v5.69h4.65V32h5.7V17.69h4.45l.71-5.69H18.6V8.08c0-1.64.45-2.77 2.74-2.77z"/></symbol><symbol id="icon-instagram" viewBox="0 0 32 32"><path d="M31.97 9.4c-.08-1.7-.35-2.86-.75-3.87a7.84 7.84 0 00-1.84-2.84A7.9 7.9 0 0026.6.86l-.06-.02C25.52.44 24.36.18 22.66.1c-1.71-.08-2.25-.1-6.6-.1-4.34 0-4.89.02-6.6.1-1.7.07-2.86.34-3.88.74a7.85 7.85 0 00-2.83 1.85A7.9 7.9 0 00.91 5.46l-.02.06A11.7 11.7 0 00.16 9.4c-.08 1.71-.1 2.26-.1 6.6 0 4.35.02 4.9.09 6.6.08 1.7.35 2.87.74 3.88a7.91 7.91 0 001.85 2.84c.8.81 1.77 1.44 2.84 1.84 1.02.4 2.18.67 3.88.75 1.7.07 2.25.09 6.6.09 4.34 0 4.88-.02 6.59-.1a11.7 11.7 0 003.88-.74 8.24 8.24 0 004.66-4.63l.02-.05c.4-1.02.67-2.18.75-3.88.07-1.7.09-2.25.09-6.6s0-4.88-.08-6.6zm-2.88 13.07a8.8 8.8 0 01-.55 2.97 5.34 5.34 0 01-3 3.03l-.04.01c-.56.22-1.41.48-2.97.55-1.69.08-2.2.1-6.47.1-4.26 0-4.78-.02-6.46-.1a8.78 8.78 0 01-2.97-.55 4.95 4.95 0 01-1.84-1.2 4.98 4.98 0 01-1.18-1.8l-.01-.03a8.84 8.84 0 01-.55-2.97c-.08-1.69-.1-2.2-.1-6.46 0-4.27.02-4.79.1-6.47.07-1.56.33-2.4.55-2.97a4.9 4.9 0 011.2-1.83c.5-.52 1.12-.93 1.8-1.19h.04A8.8 8.8 0 019.6 3c1.68-.07 2.2-.1 6.46-.1 4.28 0 4.78.03 6.46.1 1.57.07 2.41.33 2.97.55.7.26 1.33.66 1.84 1.2.53.52.94 1.14 1.2 1.84.21.56.48 1.4.55 2.96.07 1.7.09 2.2.09 6.47s-.02 4.77-.1 6.46z"/><path d="M16.06 7.78a8.22 8.22 0 100 16.44 8.22 8.22 0 000-16.44zm0 13.55a5.33 5.33 0 010-10.66 5.33 5.33 0 110 10.67zM26.52 7.46a1.92 1.92 0 01-3.84 0 1.92 1.92 0 013.84 0z"/></symbol><symbol id="icon-linkedin" viewBox="0 0 32 32"><path d="M32 32V20.26c0-5.74-1.24-10.16-7.95-10.16-3.22 0-5.39 1.77-6.27 3.45h-.1v-2.92h-6.36V32h6.62V21.42c0-2.79.53-5.48 3.98-5.48 3.4 0 3.45 3.18 3.45 5.66V32H32zM.52 10.63h6.63V32H.53V10.63zM3.84 0A3.84 3.84 0 000 3.84a3.88 3.88 0 003.84 3.88c2.12 0 3.85-1.76 3.85-3.88S5.97 0 3.84 0z"/></symbol><symbol id="icon-twitter" viewBox="0 0 32 32"><path d="M32 6.08c-1.1.5-2.38.86-3.71 1.03h-.07a6.56 6.56 0 002.87-3.58l.01-.04c-1.2.72-2.59 1.27-4.07 1.57l-.09.02A6.54 6.54 0 0015.6 9.55c0 .52.04 1.02.15 1.5A18.57 18.57 0 012.23 4.2c-.56.95-.9 2.09-.9 3.3v.01a6.57 6.57 0 002.91 5.45 6.45 6.45 0 01-3-.82l.04.01v.08a6.6 6.6 0 005.21 6.44h.05a6.4 6.4 0 01-1.66.22H4.8c-.41 0-.84-.02-1.23-.11a6.62 6.62 0 006.13 4.57 13.1 13.1 0 01-8.13 2.8H1.51c-.53 0-1.06-.04-1.57-.1H0A18.3 18.3 0 0010 29h.07c12.07 0 18.67-10 18.67-18.67 0-.29-.01-.57-.03-.85a13.2 13.2 0 003.26-3.35l.03-.05z"/></symbol></defs></svg>